<svg version="1" xmlns="http://www.w3.org/2000/svg" width="853.333" height="853.333" viewBox="0 0 640.000000 640.000000"><path d="M0 320v320h640V0H0v320zm340.2-166.9c14.3 3.1 24.9 13.8 26 26.4l.3 4-10.8.3c-9.2.2-10.7 0-10.7-1.3 0-.9-.9-3.3-2-5.4-2.7-5.5-7.6-7.6-17-7.5-11 0-16.9 3.5-17 10 0 5.9 4.7 8.5 25 13.9 20.6 5.5 28.5 10.5 33.1 20.9 1.6 3.7 2.2 7 2.2 12.5 0 10.1-2.7 16.4-10 23.1-7.7 7.1-15.8 9.5-31.3 9.5-17.7 0-28.2-4.3-35.4-14.2-3.4-4.6-7.6-15.4-7.6-19.2 0-2 .1-2 15.1-3.7l5.6-.6.6 3.9c1.5 8.8 9.1 15.1 19.6 16 7.8.7 13.8-1.1 18.3-5.7 3.3-3.2 3.8-4.4 3.8-8.2 0-7.9-2.8-9.6-27-15.9-12.4-3.2-20.1-7.1-25.2-12.8-5.1-5.6-6.8-10.4-6.8-18.7.1-13.2 8.9-23.4 23.5-27 6.4-1.6 20.9-1.7 27.7-.3zm-139.5 3.6c8.7 33.8 17.8 66.1 18.4 65.1.4-.7 4.4-15.5 8.8-32.8 4.5-17.3 8.6-32.5 9.1-33.8.9-2.1 1.3-2.2 16.5-2.2H269v105.1l-9.7-.3-9.8-.3-.5-39.3-.5-39.3-9.9 39.5-9.8 39.6H208.5l-10.2-40.3-10.1-40.2-.1 40.2-.1 40.3h-20V153h31.8l.9 3.7zm207.5 34c.3 33.4.5 38.2 2 40.9 3.9 7.2 11.9 11 21.3 10.2 6.7-.6 11.5-3 14.5-7.5l2.5-3.6.3-38.9.3-38.8H470v36.2c0 38.5-.7 46.2-4.4 53.7-6.3 12.2-20.8 18.1-41.1 16.8-15.5-1.1-24-4.9-30.5-13.9-6.1-8.3-6.3-10.4-6.8-53.6l-.4-39.2h21.1l.3 37.7zm76.9 99.6c1.9 1.2 4.4 4.2 5.7 6.7l2.2 4.4-.1 95.6c0 70.5-.4 96.3-1.2 98.5-1.9 4.8-4.1 7.4-8.3 9.5-3.7 2-7 2-163.4 2s-159.7 0-163.4-2c-4.2-2.1-6.4-4.7-8.3-9.5-.8-2.2-1.2-28-1.2-98.6l-.1-95.6 2.3-4.4c1.3-2.4 3.8-5.4 5.7-6.7l3.3-2.2h323.4l3.4 2.3z"/><path d="M177 392v67h25.9l.3-31.8c.3-33.6.7-36 5.6-41.6 4.4-5 14.9-7 21.7-4.2 6.9 2.9 6.9 3 7.5 42.1l.5 35 12.8.3 12.7.3v-35.9c0-28.4-.3-36.9-1.5-41.5-3.8-14.7-14.1-21.7-31.9-21.7-8.9 0-18.3 2-23.4 5.1-1.8 1-3.5 1.9-3.8 1.9-.2 0-.4-9.5-.4-21v-21h-26v67zM380 392v67h24v-6.9l4.8 2.9c9.8 6.1 24.3 7.7 35.4 3.9 14.6-4.9 23.4-15.7 27.4-33.5 2.4-11.2 1.6-29.4-1.9-38.7-4.7-12.9-12.5-20.6-24.7-24.7-11.7-3.9-28.6-2.3-37.8 3.7-1.3.8-2.5 1.3-2.7 1.1-.2-.2 0-9.3.4-20.3s.6-20.3.4-20.8c-.2-.4-6-.7-12.9-.7H380v67zm55-10c8.1 4.1 11.3 12 11.3 28 0 15.9-2.7 22.6-11.1 27.7-6.8 4.2-15 2.8-21.5-3.5-5.7-5.5-7.9-12.5-7.9-25.2 0-14.9 2.8-21.7 11-26.7 4.8-3 12.7-3.1 18.2-.3zM278.3 399.2c.4 40.2.5 41.3 6 49.5 2.5 3.7 4.7 5.6 10.2 8.3 6.6 3.3 7.5 3.5 17 3.4 8.5 0 11-.5 16.5-2.7 3.5-1.5 7.9-4.2 9.7-5.9l3.3-3.2V459h24v-97h-25.9l-.3 32.9-.3 32.9-3 4.3c-4 5.6-9.5 8.4-16.5 8.4-6.3-.1-10.2-2.2-12.8-6.9-1.5-2.7-1.7-7.4-2-37.4l-.3-34.2h-26.1l.5 37.2z"/></svg>